<svg width="136" height="136" viewBox="0 0 136 136" fill="none" xmlns="http://www.w3.org/2000/svg">
<path d="M98.8026 41.7488L93.1593 104.968L67.7927 112L42.4959 104.977L36.8586 41.7488H98.8026Z" fill="#E44D26"/>
<path d="M67.8306 106.625L88.3281 100.942L93.1506 46.9186H67.8306V106.625Z" fill="#F16529"/>
<path d="M56.8603 62.4283H67.8306V54.6735H48.3854L48.571 56.7539L50.477 78.1239H67.8306V70.3692H57.569L56.8603 62.4283Z" fill="#EBEBEB"/>
<path d="M58.608 82.0014H50.8234L51.9099 94.1774L67.7949 98.5872L67.8306 98.5773V90.5091L67.7966 90.5182L59.1601 88.1861L58.608 82.0014Z" fill="#EBEBEB"/>
<path d="M42.6219 24.5659H46.5627V28.4594H50.1677V24.5659H54.1087V36.3565H50.1679V32.4083H46.5629V36.3565H42.6221V24.5659H42.6219Z" fill="white"/>
<path d="M59.2911 28.4758H55.8217V24.5659H66.7032V28.4758H63.2323V36.3565H59.2912V28.4758H59.2911Z" fill="white"/>
<path d="M68.4301 24.5659H72.5394L75.0671 28.7088L77.5923 24.5659H81.703V36.3565H77.7784V30.5124L75.0671 34.7047H74.9993L72.2861 30.5124V36.3565H68.4301V24.5659Z" fill="white"/>
<path d="M83.6643 24.5659H87.6064V32.4592H93.1484V36.3565H83.6643V24.5659Z" fill="white"/>
<path d="M67.8037 78.1239H77.3528L76.4527 88.1812L67.8037 90.5156V98.5834L83.7014 94.1774L83.818 92.8673L85.6403 72.4516L85.8295 70.3692H67.8037V78.1239Z" fill="white"/>
<path d="M67.8037 62.4093V62.4283H86.5351L86.6907 60.6852L87.044 56.7539L87.2295 54.6735H67.8037V62.4093Z" fill="white"/>
</svg>
