<svg width="136" height="136" viewBox="0 0 136 136" fill="none" xmlns="http://www.w3.org/2000/svg">
<path d="M30 30H105V105H30V30Z" fill="#F7DF1E"/>
<path d="M49.7202 92.6755L55.4598 89.202C56.567 91.1652 57.5743 92.8263 59.9904 92.8263C62.3063 92.8263 63.7664 91.9204 63.7664 88.3965V64.4323H70.8145V88.4962C70.8145 95.7962 66.5355 99.1189 60.2925 99.1189C54.6543 99.1189 51.3814 96.1988 49.7201 92.6749" fill="black"/>
<path d="M74.6428 91.9202L80.3816 88.5975C81.8924 91.0646 83.8558 92.8769 87.3294 92.8769C90.2497 92.8769 92.112 91.4168 92.112 89.403C92.112 86.9864 90.199 86.1305 86.9769 84.7213L85.2153 83.9656C80.1302 81.8012 76.757 79.0826 76.757 73.3432C76.757 68.057 80.7845 64.0293 87.0778 64.0293C91.5585 64.0293 94.7806 65.5901 97.0962 69.6681L91.6085 73.192C90.4002 71.0274 89.0916 70.1716 87.078 70.1716C85.0138 70.1716 83.7047 71.4806 83.7047 73.192C83.7047 75.3065 85.0138 76.1626 88.0341 77.4716L89.796 78.2268C95.7871 80.7945 99.1603 83.4121 99.1603 89.3022C99.1603 95.646 94.1763 99.1195 87.4806 99.1195C80.9358 99.1195 76.7068 95.9983 74.643 91.9202" fill="black"/>
</svg>
