<svg width="136" height="136" viewBox="0 0 136 136" fill="none" xmlns="http://www.w3.org/2000/svg">
<path d="M109.953 44.6355C109.984 44.7512 110 44.8705 110 44.9904V63.6208C110 64.1076 109.741 64.5571 109.32 64.7993L93.741 73.8021V91.6464C93.741 92.132 93.4839 92.5803 93.0643 92.8248L60.5446 111.615C60.4702 111.657 60.389 111.684 60.3078 111.713C60.2774 111.724 60.2486 111.742 60.2165 111.751C59.9891 111.811 59.7502 111.811 59.5229 111.751C59.4856 111.741 59.4518 111.72 59.4163 111.707C59.3418 111.679 59.264 111.656 59.193 111.615L26.6801 92.8248C26.2597 92.5824 26 92.133 26 91.6464V35.7549C26 35.6327 26.0169 35.5138 26.0474 35.3983C26.0575 35.3593 26.0812 35.3236 26.0947 35.2846C26.1201 35.2133 26.1438 35.1403 26.181 35.074C26.2064 35.0299 26.2436 34.9942 26.2741 34.9535C26.313 34.8991 26.3485 34.8431 26.3942 34.7956C26.4331 34.7565 26.4838 34.7276 26.5278 34.6937C26.5769 34.6529 26.6209 34.6088 26.6767 34.5765H26.6784L42.9357 25.1815C43.3546 24.9395 43.8701 24.9395 44.289 25.1815L60.5463 34.5765H60.5497C60.6039 34.6105 60.6495 34.6529 60.6986 34.692C60.7426 34.7259 60.7916 34.7565 60.8305 34.7939C60.8779 34.8431 60.9117 34.8991 60.9523 34.9535C60.9811 34.9942 61.02 35.0299 61.0437 35.074C61.0826 35.1419 61.1046 35.2133 61.1317 35.2846C61.1452 35.3236 61.1689 35.3593 61.179 35.4C61.2102 35.5158 61.2261 35.6351 61.2264 35.7549V70.6642L74.7736 62.8347V44.9887C74.7736 44.8698 74.7905 44.7492 74.821 44.6355C74.8328 44.5947 74.8548 44.5591 74.8683 44.52C74.8954 44.4487 74.9191 44.3757 74.9563 44.3095C74.9817 44.2653 75.0189 44.2297 75.0476 44.1889C75.0882 44.1346 75.1221 44.0785 75.1695 44.031C75.2084 43.9919 75.2574 43.9631 75.3014 43.9291C75.3522 43.8884 75.3961 43.8442 75.4503 43.8119H75.452L91.711 34.4169C92.1298 34.1746 92.6455 34.1746 93.0643 34.4169L109.322 43.8119C109.379 43.8459 109.423 43.8884 109.474 43.9274C109.516 43.9614 109.565 43.9919 109.604 44.0293C109.652 44.0785 109.685 44.1346 109.726 44.1889C109.756 44.2297 109.794 44.2653 109.817 44.3095C109.856 44.3757 109.878 44.4487 109.905 44.52C109.92 44.5591 109.942 44.5947 109.953 44.6355ZM107.29 62.8347V47.3421L101.601 50.6294L93.741 55.1716V70.6642L107.292 62.8347H107.29ZM91.0326 90.8602V75.3574L83.3015 79.7892L61.2247 92.4359V108.085L91.0326 90.8602ZM28.7101 38.1067V90.8602L58.5146 108.083V92.4376L42.9441 83.5927L42.9391 83.5894L42.9323 83.586C42.8798 83.5554 42.8359 83.5112 42.7868 83.4739C42.7445 83.4399 42.6955 83.4128 42.6582 83.3754L42.6549 83.3703C42.6109 83.3279 42.5804 83.2752 42.5432 83.2277C42.5094 83.1818 42.4688 83.1428 42.4417 83.0952L42.44 83.0901C42.4096 83.0392 42.3909 82.9781 42.369 82.9203C42.347 82.8694 42.3182 82.8219 42.3047 82.7675V82.7658C42.2878 82.7013 42.2844 82.6334 42.2776 82.5672C42.2708 82.5162 42.2573 82.4653 42.2573 82.4143V82.4109V45.9361L34.3993 41.3923L28.7101 38.1084V38.1067ZM43.614 27.9288L30.0686 35.7549L43.6107 43.581L57.1545 35.7532L43.6107 27.9288H43.614ZM50.6583 76.7702L58.5163 72.2297V38.1067L52.8271 41.394L44.9674 45.9361V80.0592L50.6583 76.7702ZM92.3876 37.1643L78.8438 44.9904L92.3876 52.8165L105.93 44.9887L92.3876 37.1643ZM91.0326 55.1716L83.1729 50.6294L77.4837 47.3421V62.8347L85.3417 67.3751L91.0326 70.6642V55.1716ZM59.868 90.0842L79.7337 78.7008L89.664 73.0125L76.1303 65.1915L60.548 74.196L46.3462 82.4025L59.868 90.0842Z" fill="#FF2D20"/>
</svg>
