<svg width="136" height="136" viewBox="0 0 136 136" fill="none" xmlns="http://www.w3.org/2000/svg">
<path d="M44.7139 61.5374C47.1719 61.5374 48.796 61.9758 49.63 62.8964C50.464 63.817 50.6395 65.3513 50.2006 67.5431C49.7617 69.8227 48.8838 71.4885 47.6109 72.4529C46.338 73.4173 44.4066 73.8995 41.8169 73.8995H37.9104L40.3245 61.5374H44.7139ZM29 86.437H35.4524L36.9886 78.5901H42.5192C44.9773 78.5901 46.9525 78.3271 48.5326 77.8011C50.1128 77.275 51.5174 76.4421 52.8342 75.2147C53.9315 74.2064 54.8094 73.1105 55.4678 71.9269C56.1262 70.7433 56.6091 69.4281 56.8724 67.9815C57.5747 64.4745 57.048 61.7566 55.3361 59.784C53.6243 57.8113 50.9029 56.8469 47.1719 56.8469H34.7501L29 86.437Z" fill="white"/>
<path d="M61.6129 49H68.0214L66.4851 56.8469H72.1913C75.7905 56.8469 78.2486 57.4606 79.6093 58.7319C80.97 60.0031 81.365 62.0197 80.8383 64.8252L78.1608 78.5901H71.6645L74.2104 65.4828C74.5176 63.9923 74.3859 62.9841 73.9031 62.458C73.4203 61.932 72.3229 61.6251 70.6989 61.6251H65.5633L62.2713 78.5901H55.8629L61.6129 49Z" fill="white"/>
<path d="M95.0598 61.5374C97.5178 61.5374 99.1419 61.9758 99.9759 62.8964C100.81 63.817 100.985 65.3513 100.547 67.5431C100.108 69.8227 99.2297 71.4885 97.9568 72.4529C96.6839 73.4173 94.7526 73.8995 92.1628 73.8995H88.2563L90.6705 61.5374H95.0598ZM79.3459 86.437H85.7983L87.3345 78.5901H92.8651C95.3232 78.5901 97.2984 78.3271 98.8785 77.8011C100.459 77.275 101.863 76.4421 103.18 75.2147C104.277 74.2064 105.155 73.1105 105.814 71.9269C106.472 70.7433 106.955 69.4281 107.218 67.9815C107.921 64.4745 107.394 61.7566 105.682 59.784C103.97 57.8113 101.249 56.8469 97.5179 56.8469H85.096L79.3459 86.437Z" fill="white"/>
</svg>
