<svg width="136" height="136" viewBox="0 0 136 136" fill="none" xmlns="http://www.w3.org/2000/svg">
<path d="M98.9313 53.1695C97.9354 52.8208 96.9035 52.4907 95.8409 52.1786C96.0156 51.4534 96.1758 50.7375 96.3184 50.0339C98.6577 38.4792 97.1282 29.1708 91.9052 26.106C86.8971 23.1673 78.7067 26.2314 70.4349 33.5564C69.6394 34.2608 68.8418 35.0066 68.0444 35.7881C67.5132 35.271 66.9828 34.7713 66.4537 34.2933C57.7845 26.4609 49.095 23.1602 43.8772 26.2338C38.8739 29.181 37.3922 37.9319 39.4979 48.8823C39.7013 49.94 39.939 51.0201 40.2078 52.1183C38.978 52.4735 37.7907 52.8522 36.6547 53.2551C26.491 56.8608 20 62.5118 20 68.3733C20 74.4272 26.9681 80.4993 37.5544 84.1811C38.3898 84.4717 39.2567 84.7464 40.15 85.0072C39.86 86.195 39.6078 87.3589 39.3961 88.4941C37.3883 99.2545 38.9563 107.799 43.9463 110.727C49.1005 113.752 57.7507 110.643 66.1738 103.151C66.8396 102.559 67.5077 101.931 68.177 101.272C69.0446 102.122 69.9108 102.927 70.7723 103.682C78.9311 110.826 86.9892 113.71 91.9746 110.774C97.1237 107.741 98.7971 98.5621 96.6246 87.3951C96.4587 86.5422 96.2656 85.6709 96.0487 84.7841C96.6562 84.6014 97.2526 84.4127 97.8341 84.2166C108.839 80.5063 116 74.508 116 68.3733C116 62.4905 109.3 56.8015 98.9313 53.1695ZM96.5443 80.2555C96.0193 80.4324 95.4807 80.6033 94.9319 80.769C93.7169 76.8552 92.0772 72.6935 90.0705 68.3937C91.9854 64.1963 93.5617 60.0877 94.7427 56.1993C95.7247 56.4885 96.6779 56.7935 97.5964 57.1153C106.48 60.2272 111.899 64.8281 111.899 68.3733C111.899 72.1496 106.047 77.0517 96.5443 80.2555ZM92.6014 88.2055C93.5621 93.1434 93.6993 97.6079 93.063 101.098C92.4912 104.234 91.3413 106.325 89.9196 107.162C86.8942 108.944 80.4244 106.628 73.4469 100.518C72.647 99.8179 71.8414 99.07 71.0331 98.2785C73.7381 95.2682 76.4416 91.7686 79.0801 87.8819C83.721 87.4629 88.1056 86.7778 92.0818 85.8425C92.2776 86.6463 92.4515 87.4347 92.6014 88.2055ZM52.7286 106.854C49.7727 107.916 47.4185 107.947 45.9954 107.112C42.9673 105.335 41.7084 98.4747 43.4256 89.2724C43.6223 88.2185 43.8564 87.136 44.1262 86.0294C48.0588 86.9143 52.4112 87.551 57.0633 87.9348C59.7196 91.738 62.5011 95.2338 65.3042 98.2947C64.6918 98.8963 64.0818 99.4691 63.4751 100.009C59.7505 103.322 56.018 105.672 52.7286 106.854ZM38.8807 80.2324C34.1997 78.6044 30.3339 76.4885 27.6841 74.1796C25.303 72.1047 24.1009 70.0448 24.1009 68.3733C24.1009 64.8163 29.3125 60.2794 38.0046 57.1957C39.0593 56.8215 40.1633 56.4689 41.3091 56.1376C42.5104 60.1138 44.0862 64.271 45.9879 68.4749C44.0616 72.7411 42.4634 76.9646 41.2503 80.9874C40.4335 80.7485 39.6422 80.497 38.8807 80.2324ZM43.5226 48.0809C41.7185 38.6988 42.9167 31.6214 45.9319 29.8454C49.1435 27.9534 56.2454 30.651 63.7306 37.4139C64.2091 37.8462 64.6894 38.2986 65.1711 38.7667C62.3819 41.8142 59.6257 45.2837 56.993 49.0645C52.4781 49.4903 48.1562 50.1743 44.1826 51.0903C43.9328 50.0678 43.7115 49.0631 43.5226 48.0809ZM84.9327 58.4855C83.9828 56.8159 83.0076 55.1858 82.0134 53.6002C85.0764 53.9942 88.0111 54.5173 90.767 55.1573C89.9396 57.8555 88.9084 60.6767 87.6945 63.5688C86.8237 61.8865 85.9026 60.1903 84.9327 58.4855ZM68.0458 41.749C69.9374 43.8343 71.8318 46.1625 73.695 48.6886C71.8174 48.5983 69.9166 48.5514 68 48.5514C66.1015 48.5514 64.2147 48.5973 62.3487 48.686C64.2138 46.1834 66.1246 43.8583 68.0458 41.749ZM51.0507 58.5143C50.1018 60.1886 49.1979 61.8755 48.3407 63.5656C47.1465 60.6836 46.1248 57.8496 45.2902 55.1131C48.0292 54.4894 50.9501 53.9795 53.9936 53.5929C52.9854 55.1931 52.0022 56.8352 51.0507 58.514V58.5143ZM54.0812 83.4514C50.9367 83.0944 47.972 82.6107 45.2337 82.0042C46.0816 79.2189 47.1258 76.3243 48.3454 73.3803C49.2047 75.0691 50.1122 76.7568 51.0669 78.4347H51.0671C52.0396 80.1441 53.0471 81.8185 54.0812 83.4514ZM68.1593 95.2918C66.2155 93.1579 64.2767 90.7973 62.3832 88.2582C64.2214 88.3316 66.0954 88.3691 68 88.3691C69.9567 88.3691 71.8911 88.3243 73.795 88.238C71.9256 90.8229 70.0381 93.1871 68.1593 95.2918ZM87.7336 73.2302C89.0167 76.2061 90.0984 79.0855 90.9572 81.8234C88.1738 82.4695 85.1685 82.9899 82.0021 83.3766C82.9987 81.7696 83.9825 80.1115 84.9491 78.406C85.9271 76.6804 86.8556 74.9523 87.7336 73.2302ZM81.3967 76.3212C79.8961 78.9688 78.3554 81.4963 76.7914 83.8821C73.9426 84.0893 70.9996 84.1961 68 84.1961C65.0125 84.1961 62.1066 84.1017 59.3083 83.9168C57.6811 81.4998 56.107 78.9648 54.6159 76.344H54.6163C53.1291 73.7303 51.7604 71.0945 50.5201 68.4735C51.76 65.8464 53.1252 63.2076 54.6038 60.5986L54.6035 60.5991C56.086 57.9831 57.6463 55.4605 59.2584 53.0586C62.1134 52.839 65.0411 52.7244 67.9998 52.7244H68C70.9721 52.7244 73.9035 52.8399 76.7577 53.0614C78.3452 55.4458 79.8949 57.9602 81.3832 60.5765C82.8885 63.2222 84.2712 65.8434 85.5217 68.4142C84.275 71.0291 82.8953 73.6767 81.3967 76.3212ZM89.8568 29.7212C93.0715 31.6076 94.3216 39.2154 92.3019 49.1916C92.173 49.8282 92.0279 50.4765 91.8704 51.1336C87.8875 50.1985 83.5626 49.5027 79.0345 49.0704C76.3966 45.2481 73.6631 41.7732 70.9193 38.7647C71.657 38.0426 72.3936 37.3541 73.1272 36.7043C80.2146 30.4282 86.8387 27.9503 89.8568 29.7212ZM68 59.6504C72.7344 59.6504 76.5725 63.5557 76.5725 68.3733C76.5725 73.1907 72.7344 77.0962 68 77.0962C63.2656 77.0962 59.4275 73.1907 59.4275 68.3733C59.4275 63.5557 63.2656 59.6504 68 59.6504Z" fill="#00D8FF"/>
</svg>
