<svg width="136" height="136" viewBox="0 0 136 136" fill="none" xmlns="http://www.w3.org/2000/svg">
<g clip-path="url(#clip0_401_19)">
<path d="M99.0058 69.3599C96.0072 69.3757 93.4011 70.1039 91.219 71.1804C90.4183 69.5815 89.6177 68.1567 89.4764 67.1119C89.3194 65.893 89.131 65.149 89.3194 63.6925C89.5078 62.2361 90.3555 60.1623 90.3398 60.004C90.3241 59.8457 90.1514 59.1017 88.4245 59.0859C86.6976 59.07 85.2062 59.4183 85.0335 59.8774C84.8608 60.3365 84.5311 61.3813 84.3113 62.4578C84.0131 64.0408 80.8575 69.6923 79.0521 72.6526C78.4712 71.497 77.9689 70.4838 77.859 69.6765C77.702 68.4575 77.5136 67.7135 77.702 66.2571C77.8904 64.8007 78.7381 62.7269 78.7224 62.5686C78.7067 62.4103 78.534 61.6662 76.8071 61.6504C75.0802 61.6346 73.5888 61.9829 73.4161 62.4419C73.2434 62.901 73.055 63.9775 72.694 65.0223C72.3329 66.0671 68.1412 75.5021 67.0423 77.94C66.4771 79.1906 65.9904 80.1879 65.645 80.8686C65.645 80.8686 65.6293 80.9161 65.5822 80.9953C65.284 81.581 65.1113 81.8976 65.1113 81.8976C65.1113 81.8976 65.1113 81.8976 65.1113 81.9134C64.8758 82.3409 64.6246 82.7366 64.499 82.7366C64.4048 82.7366 64.2321 81.5968 64.5304 80.0454C65.1584 76.7685 66.6498 71.6711 66.6341 71.497C66.6341 71.402 66.9167 70.5155 65.6607 70.0564C64.4362 69.5973 63.9966 70.3572 63.8867 70.3572C63.7768 70.3572 63.6983 70.6263 63.6983 70.6263C63.6983 70.6263 65.0642 64.8957 61.0923 64.8957C58.6118 64.8957 55.1894 67.6343 53.4939 70.1039C52.4263 70.6896 50.15 71.9402 47.7166 73.2858C46.7903 73.8082 45.8327 74.3306 44.9378 74.8214C44.875 74.7581 44.8122 74.6789 44.7495 74.6156C39.9455 69.439 31.0598 65.7822 31.4366 58.8326C31.5779 56.2997 32.4413 49.6509 48.5015 41.5774C61.7202 35.0077 72.2387 36.8282 74.0598 40.865C76.6658 46.6273 68.4238 57.3287 54.7655 58.8801C49.5534 59.4658 46.8217 57.4395 46.131 56.6796C45.4088 55.8881 45.2989 55.8406 45.032 55.9989C44.5925 56.2364 44.875 56.9488 45.032 57.3604C45.4402 58.4368 47.12 60.3365 49.9616 61.2705C52.4734 62.0937 58.5804 62.5528 65.9747 59.6716C74.2482 56.4422 80.7162 47.4663 78.8166 39.9468C76.917 32.3165 64.3577 29.7995 52.4734 34.0579C45.4088 36.5907 37.7476 40.58 32.2372 45.7724C25.6907 51.9463 24.6545 57.3129 25.0784 59.5608C26.6012 67.5394 37.5121 72.7318 41.8765 76.5786C41.6567 76.7052 41.4526 76.816 41.2799 76.911C39.0978 78.0033 30.7772 82.3884 28.7049 87.0267C26.35 92.2824 29.0817 96.0501 30.8871 96.5566C36.4917 98.1239 42.2533 95.306 45.346 90.6519C48.4388 85.9977 48.062 79.9505 46.6333 77.1801C46.6177 77.1485 46.6019 77.1168 46.5706 77.0851C47.1357 76.7527 47.7166 76.4044 48.2818 76.072C49.3964 75.4071 50.4953 74.7897 51.4373 74.2831C50.9035 75.7554 50.511 77.5126 50.3227 80.0454C50.0872 83.0216 51.296 86.8842 52.8816 88.4039C53.5881 89.0688 54.4201 89.0847 54.9539 89.0847C56.8064 89.0847 57.6385 87.5333 58.5647 85.6969C59.6951 83.449 60.7155 80.837 60.7155 80.837C60.7155 80.837 59.4439 87.8974 62.8977 87.8974C64.1536 87.8974 65.4252 86.251 65.9904 85.412C65.9904 85.4278 65.9904 85.4278 65.9904 85.4278C65.9904 85.4278 66.0218 85.3803 66.0846 85.2695C66.2102 85.0637 66.2887 84.9371 66.2887 84.9371C66.2887 84.9371 66.2887 84.9212 66.2887 84.9054C66.7911 84.0189 67.9214 82.0084 69.6012 78.6682C71.7677 74.3623 73.8557 68.9799 73.8557 68.9799C73.8557 68.9799 74.0441 70.2939 74.6878 72.4785C75.0645 73.7607 75.8495 75.1696 76.4775 76.5311C75.9751 77.2434 75.6611 77.6392 75.6611 77.6392C75.6611 77.6392 75.6611 77.6392 75.6768 77.655C75.2686 78.1933 74.829 78.779 74.3424 79.3489C72.6312 81.4069 70.5903 83.7656 70.3077 84.4463C69.978 85.2537 70.0565 85.8394 70.6845 86.3143C71.1397 86.6626 71.9561 86.7101 72.7882 86.6626C74.3267 86.5518 75.4099 86.1718 75.9437 85.9344C76.7757 85.6336 77.7491 85.1745 78.6596 84.4938C80.3394 83.2432 81.3599 81.4544 81.2657 79.0956C81.2186 77.7975 80.7947 76.4994 80.2767 75.2805C80.4336 75.0588 80.5749 74.8372 80.7319 74.6156C83.3851 70.7055 85.4417 66.4154 85.4417 66.4154C85.4417 66.4154 85.6301 67.7293 86.2737 69.9139C86.5877 71.0221 87.2314 72.2252 87.7966 73.3966C85.3004 75.4388 83.7619 77.8133 83.2124 79.3647C82.2233 82.2459 82.9926 83.544 84.4526 83.8448C85.112 83.9872 86.0539 83.6706 86.7447 83.3698C87.6239 83.0849 88.66 82.5942 89.649 81.8659C91.3289 80.6153 92.9459 78.874 92.8517 76.5152C92.8046 75.4388 92.522 74.3781 92.1295 73.3491C94.2489 72.4626 96.9806 71.9719 100.466 72.3835C107.939 73.27 109.414 77.9716 109.132 79.9505C108.849 81.9293 107.279 83.0057 106.761 83.3382C106.243 83.6706 106.07 83.7814 106.117 84.0189C106.18 84.3672 106.431 84.3513 106.871 84.288C107.483 84.1772 110.796 82.6891 110.937 79.0481C111.173 74.394 106.777 69.3124 99.0058 69.3599ZM41.3584 88.958C38.878 91.6809 35.4241 92.7098 33.9327 91.8392C32.3314 90.9052 32.9594 86.8842 36.005 84.0031C37.8575 82.2459 40.2438 80.6153 41.8294 79.618C42.1905 79.3964 42.7243 79.0798 43.3679 78.684C43.4778 78.6207 43.5406 78.589 43.5406 78.589C43.6662 78.5099 43.7918 78.4307 43.9174 78.3516C45.032 82.4675 43.9645 86.0927 41.3584 88.958ZM59.4125 76.5786C58.549 78.6999 56.7436 84.1297 55.6447 83.8289C54.7027 83.5756 54.1218 79.4597 55.4563 75.3913C56.1313 73.3491 57.56 70.9113 58.392 69.9614C59.7421 68.4417 61.2336 67.9351 61.5947 68.5525C62.0499 69.3599 59.9462 75.2488 59.4125 76.5786ZM74.311 83.7656C73.9499 83.9556 73.6045 84.0822 73.4475 83.9872C73.3376 83.9239 73.6045 83.6706 73.6045 83.6706C73.6045 83.6706 75.4727 81.6443 76.2106 80.7262C76.6344 80.1879 77.1368 79.5547 77.6706 78.8423C77.6706 78.9056 77.6706 78.9848 77.6706 79.0481C77.6706 81.4702 75.3471 83.1007 74.311 83.7656ZM85.8028 81.1219C85.5359 80.9319 85.583 80.2987 86.4778 78.3199C86.8232 77.5442 87.6396 76.2461 89.0368 74.9955C89.1938 75.5021 89.3037 75.9928 89.288 76.4519C89.2723 79.5072 87.1058 80.647 85.8028 81.1219Z" fill="#CD6799"/>
</g>
<defs>
<clipPath id="clip0_401_19">
<rect width="86" height="65" fill="white" transform="translate(25 32)"/>
</clipPath>
</defs>
</svg>
