<svg width="136" height="136" viewBox="0 0 136 136" fill="none" xmlns="http://www.w3.org/2000/svg">
<path d="M68 41C56 41 48.5 47 45.5 59C50 53 55.25 50.75 61.25 52.25C64.6734 53.1058 67.1202 55.5893 69.8285 58.3385C74.2405 62.8168 79.3469 68 90.5 68C102.5 68 110 62 113 50C108.5 56 103.25 58.25 97.25 56.75C93.8267 55.8942 91.3799 53.4107 88.6715 50.6615C84.2595 46.1832 79.1532 41 68 41ZM45.5 68C33.5 68 26 74 23 86C27.5 80 32.75 77.75 38.75 79.25C42.1733 80.1059 44.6202 82.5894 47.3285 85.3385C51.7405 89.8169 56.8468 95 68 95C80 95 87.5 89 90.5 77C86 83 80.75 85.25 74.75 83.75C71.3267 82.8942 68.8799 80.4107 66.1715 77.6615C61.7595 73.1832 56.6532 68 45.5 68Z" fill="url(#paint0_linear)"/>
<defs>
<linearGradient id="paint0_linear" x1="20.5" y1="58.28" x2="98.2298" y2="103.097" gradientUnits="userSpaceOnUse">
<stop stop-color="#2298BD"/>
<stop offset="1" stop-color="#0ED7B5"/>
</linearGradient>
</defs>
</svg>
