<svg width="136" height="136" viewBox="0 0 136 136" fill="none" xmlns="http://www.w3.org/2000/svg">
<path d="M102.602 25H33.3984C28.7601 25 25 28.7601 25 33.3984V102.602C25 107.24 28.7601 111 33.3984 111H102.602C107.24 111 111 107.24 111 102.602V33.3984C111 28.7601 107.24 25 102.602 25Z" fill="#3178C6"/>
<path fill-rule="evenodd" clip-rule="evenodd" d="M78.2461 93.3633V101.762C79.6066 102.467 81.2695 102.988 83.1172 103.341C84.9648 103.693 86.9805 103.861 88.9961 103.861C91.0117 103.861 92.8594 103.677 94.707 103.29C96.5547 102.904 98.0664 102.266 99.4102 101.443C100.771 100.552 101.93 99.427 102.602 97.9152C103.273 96.4035 103.794 94.7238 103.794 92.5402C103.794 91.0117 103.559 89.6848 103.105 88.509C102.652 87.3332 101.997 86.3254 101.09 85.4856C100.233 84.5953 99.2422 83.8059 98.0664 83.134C96.8906 82.4621 95.5469 81.7566 94.0352 81.1184C92.9266 80.6649 92.0195 80.2281 91.0117 79.7914C90.1383 79.3547 89.3824 78.918 88.8281 78.4813C88.2066 78.0277 87.7363 77.5574 87.4004 77.0703C87.0645 76.5664 86.8965 76.0121 86.8965 75.3906C86.8965 74.8195 87.046 74.2988 87.35 73.8285C87.654 73.3582 88.0723 72.9719 88.6098 72.6359C89.1473 72.3 89.8191 72.0481 90.6254 71.8633C91.4148 71.6785 92.2883 71.5945 93.3129 71.5945C94.0184 71.5945 94.7574 71.6466 95.4965 71.7524C96.2691 71.8582 97.0586 72.0212 97.848 72.2395C98.6375 72.4579 99.4102 72.7266 100.2 73.0626C100.939 73.3985 101.627 73.7849 102.215 74.2216V66.327C100.939 65.8399 99.5277 65.4704 98.016 65.2352C96.5043 65.0001 94.8246 64.8825 92.809 64.8825C90.7934 64.8825 88.9457 65.1009 87.098 65.5208C85.2504 65.9407 83.7387 66.6126 82.3949 67.5364C81.0344 68.4434 80.0434 69.552 79.2035 71.0638C78.4141 72.4747 78.0277 74.0872 78.0277 76.1028C78.0277 78.6223 78.75 80.8059 80.2113 82.4856C81.6559 84.3333 83.9066 85.677 86.7621 87.0208C87.9211 87.4911 88.9457 87.9614 89.9535 88.4149C90.9613 88.8684 91.8012 89.3388 92.473 89.8259C93.1953 90.313 93.7664 90.8505 94.1527 91.4216C94.5727 91.9927 94.791 92.6645 94.791 93.4372C94.791 93.9747 94.66 94.4786 94.4047 94.9489C94.1494 95.4192 93.7496 95.8224 93.2121 96.1583C92.6746 96.4942 92.0195 96.763 91.1965 96.9645C90.407 97.1493 89.5168 97.2501 88.341 97.2501C86.4934 97.2501 84.6457 96.9309 82.966 96.2927C81.1184 95.6544 79.4387 94.697 77.927 93.4372L78.2461 93.3633ZM64.1367 72.7031H74.8867V65.8164H44.8203V72.7031H55.5703V103.441H64.1367V72.7031Z" fill="white"/>
</svg>
