<svg width="136" height="136" viewBox="0 0 136 136" fill="none" xmlns="http://www.w3.org/2000/svg">
<path d="M89.6731 52.3662L69.0707 82.2948C68.8522 82.6121 68.5364 82.8498 68.1709 82.9719C67.8055 83.0939 67.4105 83.0927 67.0458 82.9701C66.6811 82.847 66.3667 82.6081 66.1501 82.2902C65.9337 81.9718 65.8269 81.5914 65.8461 81.2071L66.6707 64.6834L53.3593 61.8471C53.0749 61.7865 52.8098 61.6567 52.5876 61.4691C52.3655 61.2816 52.193 61.042 52.0856 60.7717C51.9782 60.5014 51.9392 60.2087 51.9719 59.9195C52.0046 59.6304 52.1081 59.3536 52.2732 59.1138L72.8758 29.1851C73.0943 28.8676 73.4102 28.63 73.7756 28.5081C74.1411 28.3863 74.5361 28.3869 74.9009 28.51C75.2656 28.6331 75.58 28.8718 75.7965 29.19C76.013 29.5082 76.1197 29.8885 76.1004 30.2732L75.2758 46.797L88.587 49.6332C88.8715 49.6937 89.1366 49.8235 89.3589 50.0111C89.5813 50.1987 89.7534 50.4382 89.8606 50.7085C89.9684 50.9788 90.0071 51.2715 89.9746 51.5606C89.9421 51.8498 89.8384 52.1266 89.6731 52.3664V52.3662Z" fill="#FCC72B"/>
<path d="M68.0811 107.405C68.629 107.405 69.1717 107.298 69.678 107.087C70.1842 106.876 70.644 106.567 71.031 106.177L90.498 86.62C91.2767 85.8335 91.7134 84.7687 91.7117 83.6592C91.7106 82.5497 91.271 81.4855 90.49 80.7013C89.709 79.9166 88.6503 79.475 87.546 79.4733C86.4417 79.4721 85.3819 79.9103 84.5986 80.6927L68.0811 97.2864L32.0971 61.1346C31.3126 60.3592 30.255 59.9266 29.1546 59.9311C28.0541 59.9356 27 60.3768 26.2218 61.1586C25.4437 61.9405 25.0045 62.9995 25 64.1052C24.9956 65.2108 25.4261 66.2735 26.1979 67.0616L65.1318 106.177C65.5187 106.567 65.9785 106.876 66.4845 107.087C66.9907 107.298 67.5332 107.405 68.0811 107.405Z" fill="#ABBF7F"/>
<path d="M68.0978 107.405C67.5498 107.405 67.0071 107.298 66.5009 107.087C65.9946 106.876 65.5348 106.567 65.1479 106.177L45.6809 86.62C44.9021 85.8335 44.4656 84.7687 44.467 83.6592C44.4685 82.5497 44.9078 81.4855 45.6887 80.7013C46.4696 79.9166 47.5284 79.475 48.6327 79.4733C49.7371 79.4721 50.797 79.9103 51.5801 80.6927L68.0978 97.2864L104.082 61.1346C104.866 60.3592 105.924 59.9266 107.024 59.9311C108.125 59.9356 109.179 60.3768 109.957 61.1586C110.735 61.9405 111.174 62.9995 111.179 64.1052C111.183 65.2108 110.753 66.2735 109.981 67.0616L71.047 106.177C70.6601 106.567 70.2004 106.876 69.6943 107.087C69.1882 107.298 68.6456 107.405 68.0978 107.405Z" fill="#729B1B"/>
</svg>
